<svg width="16" height="23" viewBox="0 0 16 23" fill="none" xmlns="http://www.w3.org/2000/svg">
    <path d="M4.48438 8.21094L7.46094 5.21094C7.625 5.07031 7.8125 5 8 5C8.21094 5 8.39844 5.07031 8.53906 5.21094L11.5156 8.21094C11.75 8.42188 11.8203 8.75 11.7031 9.03125C11.5859 9.3125 11.3047 9.5 11 9.5H5.02344C4.71875 9.5 4.46094 9.3125 4.34375 9.03125C4.22656 8.75 4.27344 8.42188 4.48438 8.21094Z" fill="#ACAFB9"/>
    <path d="M11.5156 14.7891L8.53906 17.7891C8.375 17.9297 8.1875 18 8 18C7.78906 18 7.60156 17.9297 7.46094 17.7891L4.48438 14.7891C4.25 14.5781 4.17969 14.25 4.29688 13.9688C4.41406 13.6875 4.69531 13.5 5 13.5H10.9766C11.2812 13.5 11.5391 13.6875 11.6562 13.9688C11.7734 14.25 11.7266 14.5781 11.5156 14.7891Z" fill="#ACAFB9"/>
</svg>
    